# xmcd
#
# Track frame offsets: 
#        150
#        21190
#        43040
#        58215
#        77790
#        101734
#        122314
#        142986
#        162381
#        183528
#
# Disc length: 2820 seconds
#
# Revision: 0
# Processed by: cddbd v1.5.2PL0 Copyright (c) Steve Scherf et al.
# Submitted via: ExactAudioCopy v1.0b3
#
DISCID=840b020a
DTITLE=Quoc Dai - Gia Tu
DYEAR=2007
DGENRE=
TTITLE0=Gia tu
TTITLE1=Em ve voi nguoi
TTITLE2=Que huong ba mien
TTITLE3=Trai mong toi
TTITLE4=Hat nua di em
TTITLE5=Hong Ngu mang ten em
TTITLE6=Hai ban tay trang
TTITLE7=Duyen dang ao hoa
TTITLE8=Hinh bong nguoi yeu
TTITLE9=Tra no nguoi ta
EXTD=
EXTT0=
EXTT1=
EXTT2=
EXTT3=
EXTT4=
EXTT5=
EXTT6=
EXTT7=
EXTT8=
EXTT9=
PLAYORDER=
